<?xml version="1.0" encoding="utf-8"?>
<!-- Generator: Adobe Illustrator 16.0.0, SVG Export Plug-In . SVG Version: 6.00 Build 0)  -->
<!DOCTYPE svg PUBLIC "-//W3C//DTD SVG 1.1//EN" "http://www.w3.org/Graphics/SVG/1.1/DTD/svg11.dtd">
<svg version="1.1" id="Layer_1" xmlns="http://www.w3.org/2000/svg" xmlns:xlink="http://www.w3.org/1999/xlink" x="0px" y="0px"
	 width="32px" height="32px" viewBox="0 0 32 32" enable-background="new 0 0 32 32" xml:space="preserve">
<title>Layer 1</title>
<path id="svg_1" fill="#FFFFFF" d="M31.337,14.542l-3.959-3.959c-0.386-0.387-0.849-0.58-1.38-0.58c-1.188,0-2.001,1.017-2.001,2
	c0,0.517,0.186,0.986,0.58,1.38l0.621,0.62h-7.203V6.802l0.621,0.621c0.394,0.394,0.864,0.58,1.38,0.58c0.984,0,2.001-0.813,2.001-2
	c0-0.531-0.193-0.995-0.58-1.38l-3.975-3.976C17.075,0.279,16.724,0,15.995,0c-0.729,0-1.135,0.334-1.463,0.663l-3.959,3.959
	c-0.387,0.386-0.58,0.849-0.58,1.38c0,1.188,1.017,2,2.001,2c0.517,0,0.985-0.186,1.38-0.58l0.621-0.621v7.202H6.792l0.621-0.62
	c0.394-0.394,0.58-0.864,0.58-1.38c0-0.984-0.813-2-2.001-2c-0.531,0-0.995,0.193-1.38,0.58l-3.959,3.959
	c-0.328,0.328-0.663,0.733-0.663,1.462c0,0.728,0.279,1.082,0.646,1.449l3.976,3.973c0.385,0.387,0.849,0.58,1.38,0.58
	c1.188,0,2.001-1.016,2.001-2c0-0.516-0.187-0.986-0.58-1.381l-0.621-0.619h7.203v7.201l-0.621-0.619
	c-0.395-0.395-0.863-0.58-1.38-0.58c-0.984,0-2.001,0.813-2.001,2c0,0.531,0.193,0.994,0.58,1.381l3.959,3.959
	c0.328,0.328,0.733,0.662,1.463,0.662c0.729,0,1.08-0.279,1.447-0.646l3.975-3.975c0.387-0.387,0.58-0.85,0.58-1.381
	c0-1.188-1.017-2-2.001-2c-0.516,0-0.986,0.186-1.38,0.58l-0.621,0.619v-7.201h7.203l-0.621,0.619
	c-0.395,0.395-0.58,0.865-0.58,1.381c0,0.984,0.813,2,2.001,2c0.531,0,0.994-0.193,1.38-0.58l3.975-3.973
	C31.72,17.086,32,16.732,32,16.004C32,15.275,31.665,14.871,31.337,14.542z"/>
</svg>
