<?xml version="1.0" encoding="utf-8"?>
<!-- Generator: Adobe Illustrator 16.0.0, SVG Export Plug-In . SVG Version: 6.00 Build 0)  -->
<!DOCTYPE svg PUBLIC "-//W3C//DTD SVG 1.1//EN" "http://www.w3.org/Graphics/SVG/1.1/DTD/svg11.dtd">
<svg version="1.1" id="Layer_1" xmlns:sketch="http://www.bohemiancoding.com/sketch/ns"
	 xmlns="http://www.w3.org/2000/svg" xmlns:xlink="http://www.w3.org/1999/xlink" x="0px" y="0px" width="24px" height="24px"
	 viewBox="0 0 24 24" enable-background="new 0 0 24 24" xml:space="preserve">
<title></title>
<desc></desc>
<g id="Artboard-1" transform="translate(-863.000000, -227.000000)">
	<g id="slice" transform="translate(215.000000, 119.000000)">
	</g>
	
		<path id="editor-pencil-pen-edit-write-outline-stroke" fill="none" stroke="#FFFFFF" stroke-width="1.5" stroke-miterlimit="10" d="
		M880.697,228.648c0.709-0.709,1.418,0,1.418,0l3.531,3.531c0,0,0.709,0.709,0,1.417l-14.851,14.847l-6.009,1.063l1.06-6.012
		L880.697,228.648z M878.58,232.184l3.535,3.535l-11.314,11.314l-3.536-3.536L878.58,232.184z M866.711,244.357l-0.692,3.918
		l3.917-0.693L866.711,244.357z M881.406,229.356l3.535,3.536l-2.119,2.12l-3.535-3.535L881.406,229.356z"/>
</g>
</svg>
