<?xml version="1.0" encoding="iso-8859-1"?>
<!-- Generator: Adobe Illustrator 16.0.0, SVG Export Plug-In . SVG Version: 6.00 Build 0)  -->
<!DOCTYPE svg PUBLIC "-//W3C//DTD SVG 1.1//EN" "http://www.w3.org/Graphics/SVG/1.1/DTD/svg11.dtd">
<svg version="1.1" id="Layer_1" xmlns="http://www.w3.org/2000/svg" xmlns:xlink="http://www.w3.org/1999/xlink" x="0px" y="0px"
	 width="30px" height="30px" viewBox="0 0 30 30" style="enable-background:new 0 0 30 30;" xml:space="preserve">
<path style="fill:#FFFFFF;" d="M-19.903,14.83l-1.434-6.422l-3.8-0.432l-0.967-1.238l0.436-3.88L-31.479,0l-2.697,2.764h-1.551
	L-38.425,0l-5.81,2.858l0.436,3.879l-0.966,1.239l-3.8,0.431L-50,14.83l3.238,2.074l0.346,1.545l-2.04,3.302l4.021,5.151
	l3.604-1.295l1.398,0.688l1.256,3.687h6.448l1.255-3.687l1.398-0.688l3.604,1.295l4.022-5.151l-2.04-3.302l0.346-1.545
	L-19.903,14.83z M-24.277,21.591l-1.974,2.528l-2.961-1.063l-3.125,1.538l-1.032,3.028h-3.165l-1.031-3.028l-3.125-1.538
	l-2.961,1.063l-1.974-2.528l1.675-2.713l-0.773-3.455l-2.659-1.702l0.704-3.153l3.121-0.354l2.162-2.771l-0.358-3.186l2.852-1.403
	l2.216,2.271h3.468l2.216-2.271l2.853,1.402l-0.358,3.186l2.162,2.771l3.122,0.354l0.704,3.154l-2.66,1.702l-0.772,3.455
	L-24.277,21.591z M-34.951,9.276c-3.189,0-5.773,2.641-5.773,5.9c0,3.259,2.584,5.899,5.773,5.899c3.188,0,5.773-2.64,5.773-5.899
	C-29.178,11.917-31.763,9.276-34.951,9.276z M-34.951,19.305c-2.229,0-4.042-1.852-4.042-4.129c0-2.277,1.813-4.129,4.042-4.129
	c2.228,0,4.042,1.853,4.042,4.129C-30.91,17.453-32.723,19.305-34.951,19.305z"/>
<path style="fill:#FFFFFF;" d="M26.674,30.082h0.589H3.253h0.589C2.044,30.082,0,28.384,0,26.29V8.844
	c0-0.419,0.291-0.759,0.65-0.759h0.589h1.363V4.292c0-1.675,1.166-3.034,2.602-3.034H12.3c1.437,0,2.603,1.358,2.603,3.034V5.05
	h14.374c0.36,0,0.65,0.34,0.65,0.759v20.48C29.927,28.384,28.472,30.082,26.674,30.082z M2.151,10.344V26.25l0,0
	c0,1.257,0.813,1.875,1.891,1.875h19.591c-0.41-0.636-0.602-1.018-0.602-1.875V10.344H2.151z M27.999,6.867l-15.383-0.04
	l-0.022-2.202c0-0.837-0.584-1.517-1.301-1.517L6.054,3.103c-0.717,0-1.301,0.68-1.301,1.517l0.023,3.475l19.885-0.009l0,0
	c0.18,0,0.345,0.086,0.461,0.225c0.117,0.137,0.19,0.326,0.19,0.534l0,0V26.29c0,1.257,0.185,1.929,1.263,1.929
	c1.079,0,1.425-0.618,1.425-1.875L27.999,6.867z"/>
<g id="Icons_with_numbers">
	<path id="Oval_188" d="M-35.016,76.886c6.568,0,11.89-5.114,11.89-11.424c0-3.739-1.868-7.057-4.755-9.142l-0.7-3.785
		C-23.507,54.85-20,59.818-20,65.573C-20,73.541-26.722,80-35.016,80c-8.294,0-15.016-6.459-15.016-14.427
		c0-5.755,3.508-10.724,8.581-13.038l-0.699,3.785c-2.888,2.085-4.756,5.402-4.756,9.142
		C-46.906,71.771-41.582,76.886-35.016,76.886z M-35.016,64.591c-0.874,0-1.57-0.81-1.57-1.81V51.878
		c0-0.988,0.703-1.811,1.57-1.811c0.874,0,1.57,0.81,1.57,1.811v10.903C-33.446,63.769-34.148,64.591-35.016,64.591z"/>
</g>
</svg>
