<?xml version="1.0" encoding="utf-8"?>
<!-- Generator: Adobe Illustrator 16.0.0, SVG Export Plug-In . SVG Version: 6.00 Build 0)  -->
<!DOCTYPE svg PUBLIC "-//W3C//DTD SVG 1.1//EN" "http://www.w3.org/Graphics/SVG/1.1/DTD/svg11.dtd">
<svg version="1.1" id="Layer_1" xmlns="http://www.w3.org/2000/svg" xmlns:xlink="http://www.w3.org/1999/xlink" x="0px" y="0px"
	 width="300px" height="100px" viewBox="0 0 300 100" enable-background="new 0 0 300 100" xml:space="preserve">
<path fill="#494949" d="M30.225,79.896c-2.623,0.281-17.95,0.178-20.478-0.243l-1.87-0.312l1.082-10.8c0,0,3.583,0.543,9.333,0.542
	s11.083,0.167,12.713-1.709C31.185,67.168,32,65.726,32,59.297V20h13v39.5c0,7.102-0.902,11.998-2.868,14.968
	C39.557,78.427,35.999,79.277,30.225,79.896z"/>
<path fill="#494949" d="M79.011,78.791c-8.081,0-14.725-2.649-19.749-7.876c-5.003-5.202-7.541-12.708-7.541-22.308
	c0-10.547,3.035-18.522,9.019-23.704c4.994-4.301,11.14-6.48,18.27-6.48c7.94,0,14.541,2.656,19.616,7.896
	c5.058,5.223,7.622,12.465,7.622,21.526c0,7.234-1.127,13.057-3.351,17.305c-2.257,4.312-5.585,7.707-9.894,10.09
	C88.744,77.597,84.036,78.791,79.011,78.791z M79.011,29.99c-4.005,0-7.235,1.456-9.875,4.451c-2.667,3.027-4.02,7.793-4.02,14.166
	c0,6.376,1.354,11.151,4.023,14.194c2.639,3.011,5.868,4.474,9.872,4.474c3.966,0,7.178-1.471,9.817-4.495
	c2.671-3.062,4.026-7.933,4.026-14.478c0-6.136-1.361-10.791-4.045-13.835C86.152,31.455,82.947,29.99,79.011,29.99z"/>
<path fill="#BF0040" d="M136.698,78.791c-7.924,0-14.405-2.649-19.264-7.874c-4.82-5.184-7.264-12.621-7.264-22.106
	c0-6.076,1.031-11.49,3.065-16.093c2.102-4.756,5.355-8.378,9.671-10.768c4.225-2.339,8.882-3.525,13.842-3.525
	c6.292,0,11.546,1.641,15.616,4.878c4.09,3.255,6.741,7.9,7.879,13.806l0.393,2.039l-12.769,1.97l-0.421-1.804
	c-0.744-3.18-2.036-5.571-3.843-7.107c-1.793-1.524-3.919-2.266-6.499-2.266c-4.036,0-7.213,1.395-9.715,4.265
	c-2.538,2.911-3.824,7.739-3.824,14.352c0,6.726,1.242,11.605,3.691,14.502c2.398,2.838,5.453,4.217,9.34,4.217
	c3.099,0,5.598-0.908,7.638-2.776c2.041-1.867,3.366-4.882,3.94-8.96l0.276-1.959l12.991,1.688l-0.322,2.032
	c-1.054,6.645-3.814,11.942-8.207,15.747C148.511,76.858,143.056,78.791,136.698,78.791z"/>
<path fill="#BF0040" d="M229,78V41.6c0-4.236-0.442-7.256-0.792-8.206c-0.438-1.192-1.241-2.135-2.429-2.884
	c-1.242-0.783-2.883-0.593-4.612-0.593c-3.266,0-5.779,1.474-7.914,3.622C211.145,35.66,210,39.261,210,44.24V78h-13V40.533
	c0-3.61-0.618-7.287-1.844-8.958c-1.102-1.5-2.965-1.23-5.699-1.23c-2.213,0-4.201,0.566-6.08,1.731
	c-1.814,1.125-3.15,2.744-3.981,4.947C178.504,39.391,178,42.947,178,47.592V78h-13V20h12v3.803c1-1.017,2.461-1.919,3.83-2.703
	c3.104-1.776,6.703-2.676,10.625-2.676c4.367,0,8.057-0.055,10.932,1.811c1.95,1.265,3.536,3.878,4.726,5.818
	c4.352-5.065,9.813-7.629,16.265-7.629c5.886,0,10.503,0.699,13.758,4.05c3.239,3.336,4.865,9.41,4.865,16.079V78H229z"/>
<path fill="#BF0040" d="M272.994,78.791c-7.438,0-13.246-1.615-17.264-4.8c-4.051-3.209-6.661-7.976-7.76-14.167l-0.357-2.009
	l13.063-2.055l0.282,2.015c0.44,3.141,1.598,5.452,3.539,7.068c1.938,1.613,4.78,2.432,8.445,2.432c3.694,0,6.405-0.705,8.056-2.095
	c1.571-1.321,2.335-2.789,2.335-4.487c0-1.398-0.553-2.387-1.794-3.206c-0.583-0.379-2.512-1.262-8.729-2.827
	c-6.898-1.741-11.579-3.223-14.313-4.527c-2.931-1.398-5.197-3.379-6.734-5.889c-1.526-2.492-2.301-5.278-2.301-8.281
	c0-2.724,0.636-5.289,1.888-7.624c1.241-2.311,2.955-4.257,5.095-5.785c1.601-1.181,3.704-2.154,6.407-2.956
	c2.63-0.779,5.479-1.174,8.466-1.174c4.456,0,8.446,0.659,11.858,1.959c3.551,1.353,6.238,3.25,7.986,5.639
	c1.702,2.326,2.882,5.424,3.508,9.208l0.335,2.03l-12.938,1.764l-0.286-1.959c-0.334-2.277-1.25-3.987-2.8-5.228
	c-1.575-1.259-3.932-1.898-7.003-1.898c-4.639,0-6.783,0.905-7.765,1.664c-1.717,1.328-1.915,2.515-1.915,3.293
	c0,0.741,0.219,1.365,0.689,1.964c0.541,0.713,1.436,1.316,2.681,1.818c0.531,0.196,2.378,0.768,7.852,2.261
	c6.604,1.763,11.12,3.182,13.797,4.333c2.895,1.246,5.206,3.095,6.871,5.497c1.686,2.433,2.54,5.446,2.54,8.96
	c0,3.432-1.009,6.698-2.997,9.71c-1.984,3.005-4.864,5.352-8.558,6.975C281.583,77.991,277.484,78.791,272.994,78.791z"/>
</svg>
