<?xml version="1.0" encoding="iso-8859-1"?>
<!-- Generator: Adobe Illustrator 16.0.0, SVG Export Plug-In . SVG Version: 6.00 Build 0)  -->
<!DOCTYPE svg PUBLIC "-//W3C//DTD SVG 1.1//EN" "http://www.w3.org/Graphics/SVG/1.1/DTD/svg11.dtd">
<svg version="1.1" id="Layer_1" xmlns="http://www.w3.org/2000/svg" xmlns:xlink="http://www.w3.org/1999/xlink" x="0px" y="0px"
	 width="30px" height="30px" viewBox="0 0 30 30" style="enable-background:new 0 0 30 30;" xml:space="preserve">
<path style="fill:#FFFFFF;" d="M30.097-35.17l-1.434-6.422l-3.8-0.432l-0.967-1.238l0.436-3.88L18.521-50l-2.697,2.764h-1.551
	L11.575-50l-5.81,2.858l0.436,3.879l-0.966,1.239l-3.8,0.431L0-35.17l3.238,2.074l0.346,1.545l-2.04,3.302l4.021,5.151l3.604-1.295
	l1.398,0.688l1.256,3.687h6.448l1.255-3.687l1.398-0.688l3.604,1.295l4.022-5.151l-2.04-3.302l0.346-1.545L30.097-35.17z
	 M25.723-28.409l-1.974,2.528l-2.961-1.063l-3.125,1.538l-1.032,3.028h-3.165l-1.031-3.028l-3.125-1.538l-2.961,1.063l-1.974-2.528
	l1.675-2.713l-0.773-3.455l-2.659-1.702l0.704-3.153l3.121-0.354l2.162-2.771l-0.358-3.186l2.852-1.403l2.216,2.271h3.468
	l2.216-2.271l2.853,1.402l-0.358,3.186l2.162,2.771l3.122,0.354l0.704,3.154l-2.66,1.702l-0.772,3.455L25.723-28.409z
	 M15.049-40.724c-3.189,0-5.773,2.641-5.773,5.9c0,3.259,2.584,5.899,5.773,5.899c3.188,0,5.773-2.64,5.773-5.899
	C20.822-38.083,18.237-40.724,15.049-40.724z M15.049-30.695c-2.229,0-4.042-1.852-4.042-4.129c0-2.277,1.813-4.129,4.042-4.129
	c2.228,0,4.042,1.853,4.042,4.129C19.09-32.547,17.277-30.695,15.049-30.695z"/>
<path style="fill:#FFFFFF;" d="M76.674-19.918h0.589h-24.01h0.589c-1.798,0-3.842-1.698-3.842-3.792v-17.446
	c0-0.419,0.291-0.759,0.65-0.759h0.589h1.363v-3.793c0-1.675,1.166-3.034,2.602-3.034H62.3c1.437,0,2.603,1.358,2.603,3.034v0.759
	h14.374c0.36,0,0.65,0.34,0.65,0.759v20.48C79.927-21.616,78.472-19.918,76.674-19.918z M52.151-39.656v15.906l0,0
	c0,1.257,0.813,1.875,1.891,1.875h19.591c-0.41-0.636-0.602-1.018-0.602-1.875v-15.906H52.151z M77.999-43.133l-15.383-0.04
	l-0.022-2.202c0-0.837-0.584-1.517-1.301-1.517l-5.239-0.006c-0.717,0-1.301,0.68-1.301,1.517l0.023,3.475l19.885-0.009l0,0
	c0.18,0,0.345,0.086,0.461,0.225c0.117,0.137,0.19,0.326,0.19,0.534l0,0v17.446c0,1.257,0.185,1.929,1.263,1.929
	c1.079,0,1.425-0.618,1.425-1.875L77.999-43.133z"/>
<g id="Icons_with_numbers">
	<path id="Oval_188" style="fill:#FFFFFF;" d="M14.984,26.886c6.568,0,11.89-5.114,11.89-11.424c0-3.739-1.868-7.057-4.755-9.142
		l-0.7-3.785C26.493,4.85,30,9.818,30,15.573C30,23.541,23.278,30,14.984,30C6.69,30-0.032,23.541-0.032,15.573
		c0-5.755,3.508-10.724,8.581-13.038L7.85,6.32c-2.888,2.085-4.756,5.402-4.756,9.142C3.094,21.771,8.418,26.886,14.984,26.886z
		 M14.984,14.591c-0.874,0-1.57-0.81-1.57-1.81V1.878c0-0.988,0.703-1.811,1.57-1.811c0.874,0,1.57,0.81,1.57,1.811v10.903
		C16.554,13.769,15.852,14.591,14.984,14.591z"/>
</g>
</svg>
