<?xml version="1.0" encoding="utf-8"?>
<!-- Generator: Adobe Illustrator 16.0.0, SVG Export Plug-In . SVG Version: 6.00 Build 0)  -->
<!DOCTYPE svg PUBLIC "-//W3C//DTD SVG 1.1//EN" "http://www.w3.org/Graphics/SVG/1.1/DTD/svg11.dtd">
<svg version="1.1" id="Layer_1" xmlns="http://www.w3.org/2000/svg" xmlns:xlink="http://www.w3.org/1999/xlink" x="0px" y="0px"
	 width="30px" height="30px" viewBox="0 0 30 30" enable-background="new 0 0 30 30" xml:space="preserve">
<rect x="11.5" y="0.5" fill="#FFFFFF" width="6" height="3"/>
<rect x="26.5" y="12.5" fill="#FFFFFF" width="3" height="6"/>
<rect x="11.5" y="26.5" fill="#FFFFFF" width="6" height="3"/>
<path fill="#FFFFFF" d="M5,29.5c-1.07,0-2.117-0.398-2.947-1.123C1.9,28.242,1.758,28.1,1.624,27.948C0.899,27.117,0.5,26.07,0.5,25
	v-3.5h3V25c0,0.827,0.673,1.5,1.5,1.5h3.5v3H5z"/>
<path fill="#FFFFFF" d="M20.5,29.5v-3H25c0.827,0,1.5-0.673,1.5-1.5v-3.5h3V25c0,1.068-0.398,2.115-1.123,2.946
	c-0.135,0.153-0.277,0.296-0.429,0.43C27.116,29.102,26.07,29.5,25,29.5H20.5z"/>
<rect x="0.5" y="12.5" fill="#FFFFFF" width="3" height="6"/>
<path fill="#FFFFFF" d="M0.5,9.5V5c0-1.071,0.399-2.117,1.124-2.947C1.758,1.9,1.9,1.758,2.052,1.624C2.882,0.899,3.929,0.5,5,0.5
	h3.5v3H5C4.173,3.5,3.5,4.173,3.5,5v4.5H0.5z"/>
<path fill="#FFFFFF" d="M22.404,11.375h-2.768c-0.689,0-1.25-0.56-1.25-1.25V7.357c0-0.332,0.133-0.65,0.367-0.885l5.532-5.523
	c0.487-0.488,1.278-0.486,1.767,0l2.76,2.758c0.487,0.488,0.487,1.279,0,1.768l-5.523,5.533
	C23.055,11.243,22.736,11.375,22.404,11.375z M20.889,8.875h0.998l4.274-4.282l-0.992-0.992l-4.28,4.275V8.875z"/>
<g>
	<path fill="#FFFFFF" d="M17,12c0,0.55-0.45,1-1,1H6c-0.55,0-1-0.45-1-1v-2c0-0.55,0.45-1,1-1h10c0.55,0,1,0.45,1,1V12z"/>
</g>
</svg>
