<?xml version="1.0" encoding="utf-8"?>
<!-- Generator: Adobe Illustrator 16.0.0, SVG Export Plug-In . SVG Version: 6.00 Build 0)  -->
<!DOCTYPE svg PUBLIC "-//W3C//DTD SVG 1.1//EN" "http://www.w3.org/Graphics/SVG/1.1/DTD/svg11.dtd">
<svg version="1.1" id="Layer_1" xmlns="http://www.w3.org/2000/svg" xmlns:xlink="http://www.w3.org/1999/xlink" x="0px" y="0px"
	 width="30px" height="30px" viewBox="0 0 30 30" enable-background="new 0 0 30 30" xml:space="preserve">
<path fill="#FFFFFF" d="M30.049,14.839l-1.435-6.422l-3.8-0.432l-0.967-1.238l0.436-3.88l-5.811-2.858l-2.697,2.764h-1.551
	l-2.698-2.764l-5.81,2.858l0.436,3.879L5.186,7.985l-3.8,0.431l-1.435,6.423l3.238,2.075l0.346,1.545l-2.04,3.301l4.021,5.152
	l3.604-1.295l1.398,0.688l1.256,3.688h6.449l1.254-3.688l1.398-0.688l3.604,1.295l4.022-5.152l-2.04-3.301l0.346-1.545
	L30.049,14.839z M25.674,21.6L23.7,24.129l-2.961-1.063l-3.125,1.537l-1.032,3.027h-3.165l-1.031-3.027l-3.125-1.537L6.3,24.129
	L4.326,21.6l1.675-2.713l-0.773-3.455L2.569,13.73l0.704-3.153l3.121-0.354l2.162-2.771L8.198,4.266l2.852-1.403l2.216,2.271h3.468
	l2.216-2.271l2.853,1.402l-0.357,3.186l2.162,2.771l3.121,0.354l0.705,3.154l-2.66,1.702l-0.772,3.455L25.674,21.6z M15,9.285
	c-3.189,0-5.773,2.641-5.773,5.9c0,3.26,2.584,5.899,5.773,5.899c3.188,0,5.773-2.639,5.773-5.899
	C20.773,11.926,18.188,9.285,15,9.285z M15,19.314c-2.229,0-4.042-1.852-4.042-4.129c0-2.277,1.813-4.129,4.042-4.129
	c2.229,0,4.042,1.853,4.042,4.129C19.041,17.463,17.229,19.314,15,19.314z"/>
</svg>
